# xmcd
#
# Track frame offsets: 
#        150
#        1973
#        21126
#        32781
#        46436
#        59850
#        74787
#        85380
#        105220
#        121834
#        138226
#        158367
#        180562
#        203100
#        240009
#
# Disc length: 3457 seconds
#
# Revision: 1
# Processed by: cddbd v1.5.2PL0 Copyright (c) Steve Scherf et al.
# Submitted via: ExactAudioCopyFreeDBPlugin 1.0
#
DISCID=bd0d7f0f
DTITLE=Jerry Garcia - Old and In The Way - Live At The Record Plant Saus
DTITLE=alito, California April 21st 1973
DYEAR=1973
DGENRE=Bluegrass
TTITLE0=(End Of) Going To The Races
TTITLE1=Willow Garden
TTITLE2=Kate Hill
TTITLE3=Till The End Of The World Rolls Around
TTITLE4=Panama Red
TTITLE5=Hard Hearted Heart Breaker
TTITLE6=Bonaparte's Retreat (Soldiers's Joy)
TTITLE7=Wild Horses
TTITLE8=Lost In A World Without You
TTITLE9=Knockin' On Your Door
TTITLE10=Lonesome L.A. Cowboy
TTITLE11=Fanny Hill
TTITLE12=White Dove
TTITLE13=Land Of The Navajo
TTITLE14=The Blue Mule
EXTD=
EXTT0=
EXTT1=
EXTT2=
EXTT3=
EXTT4=
EXTT5=
EXTT6=
EXTT7=
EXTT8=
EXTT9=
EXTT10=
EXTT11=
EXTT12=
EXTT13=
EXTT14=
PLAYORDER=
